<svg width="993" height="1185" viewBox="0 0 993 1185" fill="none" xmlns="http://www.w3.org/2000/svg">
<mask id="mask0_1_4" style="mask-type:luminance" maskUnits="userSpaceOnUse" x="63" y="76" width="866" height="1034">
<path d="M928.952 76H63V1110H928.952V76Z" fill="white"/>
</mask>
<g mask="url(#mask0_1_4)">
<mask id="mask1_1_4" style="mask-type:luminance" maskUnits="userSpaceOnUse" x="63" y="76" width="866" height="1034">
<path d="M928.952 76H63V1110H928.952V76Z" fill="white"/>
</mask>
<g mask="url(#mask1_1_4)">
<mask id="mask2_1_4" style="mask-type:luminance" maskUnits="userSpaceOnUse" x="63" y="76" width="866" height="1034">
<path d="M928.952 76H63V1110H928.952V76Z" fill="white"/>
</mask>
<g mask="url(#mask2_1_4)">
<path fill-rule="evenodd" clip-rule="evenodd" d="M485.72 74.8637C491.798 74.8637 497.873 74.8637 503.951 74.8637C518.308 82.0258 531.981 90.3584 544.968 99.8615C671.792 250.572 799.408 400.559 927.807 549.823C927.807 571.032 927.807 592.242 927.807 613.452C775.589 437.132 624.427 259.874 474.324 81.6813C477.909 78.9832 481.707 76.7106 485.72 74.8637Z" fill="#6B46E8"/>
<path fill-rule="evenodd" clip-rule="evenodd" d="M474.324 81.6813C624.427 259.874 775.589 437.132 927.807 613.452C927.807 632.39 927.807 651.329 927.807 670.265C765.224 480.855 603.429 290.721 442.423 99.8615C452.296 92.6598 462.932 86.5998 474.324 81.6813Z" fill="#6949E9"/>
<path fill-rule="evenodd" clip-rule="evenodd" d="M442.424 99.8615C603.429 290.721 765.224 480.855 927.807 670.265C927.807 720.261 927.807 770.258 927.807 820.252C804.726 677.807 682.428 534.639 560.921 390.745C566.172 364.172 571.869 337.659 578.01 311.206C581.232 295.467 575.536 290.544 560.921 296.435C547.235 312.034 532.805 326.805 517.621 340.749C464.478 277.15 410.545 214.277 355.827 152.13C383.851 133.598 412.717 116.175 442.424 99.8615Z" fill="#664EE9"/>
<path fill-rule="evenodd" clip-rule="evenodd" d="M544.968 99.8615C665.234 170.064 785.252 240.891 905.022 312.343C916.564 318.904 924.159 328.373 927.807 340.749C927.807 410.442 927.807 480.129 927.807 549.823C799.408 400.559 671.792 250.572 544.968 99.8615Z" fill="#6E41E7"/>
<path fill-rule="evenodd" clip-rule="evenodd" d="M355.827 152.13C410.545 214.277 464.478 277.15 517.621 340.749C498.633 361.202 478.882 380.898 458.374 399.835C400.644 330.903 342.913 261.968 285.184 193.035C308.421 178.8 331.968 165.164 355.827 152.13Z" fill="#6254EB"/>
<path fill-rule="evenodd" clip-rule="evenodd" d="M285.184 193.035C342.913 261.968 400.644 330.903 458.374 399.835C442.503 419.453 425.029 437.634 405.962 454.377C342.127 381.623 279.08 308.145 216.819 233.941C239.526 220.339 262.314 206.704 285.184 193.035Z" fill="#5F5AEB"/>
<path fill-rule="evenodd" clip-rule="evenodd" d="M216.82 233.941C279.08 308.145 342.127 381.623 405.962 454.377C386.15 474.889 366.399 495.344 346.712 515.735C279.867 436.197 213.022 356.657 146.177 277.119C169.072 261.903 192.619 247.51 216.82 233.941Z" fill="#5C60EC"/>
<path fill-rule="evenodd" clip-rule="evenodd" d="M146.177 277.119C213.022 356.657 279.867 436.197 346.712 515.735C344.529 519.056 341.872 522.085 338.736 524.823C337.289 529.675 338.05 534.221 341.015 538.458C378.996 576.336 416.976 614.21 454.955 652.087C451.46 681.201 445.763 709.988 437.866 738.442C317.846 598.303 197.83 458.165 77.8124 318.024C99.0714 302.11 121.86 288.475 146.177 277.119Z" fill="#5866ED"/>
<path fill-rule="evenodd" clip-rule="evenodd" d="M560.921 390.745C556.869 403.125 553.832 416.002 551.806 429.377C546.183 449.537 541.625 469.989 538.133 490.735C534.367 499.245 533.228 508.336 534.714 518.006C572.696 555.884 610.675 593.758 648.654 631.632C650.263 637.249 649.506 642.553 646.376 647.542C631.86 661.634 617.809 676.028 604.218 690.719C585.291 710.353 566.3 730.049 547.248 749.803C522.863 771.847 500.077 795.328 478.882 820.252C459.77 837.798 441.539 855.979 424.193 874.793C411.871 876.532 407.313 871.228 410.519 858.887C418.229 828.026 425.064 796.968 431.028 765.713C433.96 757.048 436.241 747.957 437.866 738.442C445.763 709.988 451.459 681.201 454.955 652.087C416.976 614.21 378.996 576.335 341.015 538.458C338.05 534.221 337.289 529.675 338.736 524.823C341.872 522.085 344.529 519.056 346.712 515.735C366.399 495.344 386.15 474.889 405.962 454.377C425.029 437.634 442.503 419.453 458.374 399.835C478.882 380.898 498.633 361.202 517.621 340.749C532.805 326.805 547.235 312.034 560.921 296.435C575.536 290.544 581.232 295.467 578.01 311.206C571.869 337.659 566.172 364.172 560.921 390.745Z" fill="#FEFFFE"/>
<path fill-rule="evenodd" clip-rule="evenodd" d="M77.8121 318.024C197.83 458.164 317.846 598.303 437.866 738.442C436.24 747.957 433.96 757.048 431.028 765.713C308.708 621.695 186.412 477.766 64.1393 333.932C66.0923 326.16 70.6499 320.856 77.8121 318.024Z" fill="#5769EE"/>
<path fill-rule="evenodd" clip-rule="evenodd" d="M64.1394 333.932C186.412 477.766 308.708 621.695 431.028 765.713C425.064 796.968 418.229 828.026 410.519 858.887C295.154 722.624 178.934 587.028 61.8606 452.103C61.8606 413.471 61.8606 374.837 61.8606 336.204C63.3798 336.204 64.1394 335.448 64.1394 333.932Z" fill="#546DEE"/>
<path fill-rule="evenodd" clip-rule="evenodd" d="M560.921 390.745C682.428 534.639 804.726 677.807 927.807 820.252C927.807 822.526 927.807 824.797 927.807 827.071C925.921 836.843 920.606 844.417 911.857 849.797C791.839 709.655 671.824 569.519 551.806 429.377C553.832 416.002 556.869 403.125 560.921 390.745Z" fill="#6452EB"/>
<path fill-rule="evenodd" clip-rule="evenodd" d="M551.806 429.377C671.824 569.519 791.839 709.655 911.857 849.797C897.439 860.023 882.246 869.113 866.279 877.065C756.108 749.013 646.726 620.236 538.133 490.735C541.625 469.989 546.183 449.537 551.806 429.377Z" fill="#6255EB"/>
<path fill-rule="evenodd" clip-rule="evenodd" d="M61.8606 452.103C178.934 587.028 295.154 722.624 410.519 858.887C407.313 871.228 411.871 876.532 424.193 874.794C473.568 933.881 522.939 992.965 572.314 1052.05C560.543 1061.34 547.63 1068.91 533.575 1074.78C375.796 891.125 218.558 707.048 61.8606 522.552C61.8606 499.071 61.8606 475.584 61.8606 452.103Z" fill="#5272EF"/>
<path fill-rule="evenodd" clip-rule="evenodd" d="M538.133 490.736C646.726 620.236 756.108 749.013 866.279 877.065C844.264 891.839 821.478 905.471 797.917 917.971C734.408 841.284 669.842 765.535 604.218 690.719C617.809 676.028 631.86 661.634 646.376 647.542C649.506 642.553 650.263 637.249 648.654 631.632C610.675 593.758 572.696 555.884 534.714 518.006C533.228 508.336 534.367 499.245 538.133 490.736Z" fill="#5F5AEB"/>
<path fill-rule="evenodd" clip-rule="evenodd" d="M61.8606 522.552C218.558 707.048 375.796 891.125 533.575 1074.78C523.912 1083.76 512.52 1089.82 499.393 1092.95C354.337 921.035 208.492 749.838 61.8606 579.365C61.8606 560.429 61.8606 541.487 61.8606 522.552Z" fill="#5075F0"/>
<path fill-rule="evenodd" clip-rule="evenodd" d="M61.8606 579.365C208.492 749.838 354.337 921.035 499.394 1092.95C489.715 1093.69 480.6 1091.79 472.047 1087.27C412.272 1051.8 353.024 1015.82 294.299 979.329C217.607 887.703 140.128 796.803 61.8606 706.626C61.8606 664.206 61.8606 621.787 61.8606 579.365Z" fill="#4E79F0"/>
<path fill-rule="evenodd" clip-rule="evenodd" d="M604.218 690.719C669.842 765.535 734.407 841.284 797.917 917.971C774.381 933.503 750.072 947.894 724.993 961.148C666.306 890.351 607.058 819.903 547.248 749.803C566.3 730.049 585.291 710.353 604.218 690.719Z" fill="#5C60EC"/>
<path fill-rule="evenodd" clip-rule="evenodd" d="M61.8606 706.626C140.128 796.803 217.607 887.703 294.299 979.329C218.284 936.691 143.463 891.997 69.8364 845.252C66.5128 840.859 63.8542 836.313 61.8606 831.616C61.8606 789.952 61.8606 748.287 61.8606 706.626Z" fill="#4B7EF1"/>
<path fill-rule="evenodd" clip-rule="evenodd" d="M547.248 749.803C607.058 819.903 666.305 890.351 724.993 961.148C698.035 979.523 669.931 996.19 640.68 1011.15C586.747 947.513 532.815 883.884 478.882 820.252C500.077 795.328 522.863 771.847 547.248 749.803Z" fill="#5867ED"/>
<path fill-rule="evenodd" clip-rule="evenodd" d="M478.882 820.252C532.815 883.884 586.747 947.513 640.68 1011.15C618.664 1025.92 595.875 1039.55 572.314 1052.05C522.939 992.965 473.567 933.881 424.193 874.794C441.539 855.979 459.77 837.798 478.882 820.252Z" fill="#546DEE"/>
</g>
</g>
</g>
</svg>
