<svg width="1000" height="1000" viewBox="0 0 1000 1000" fill="none" xmlns="http://www.w3.org/2000/svg">
<path d="M791.667 833.333H166.667C144.565 833.333 123.369 824.554 107.741 808.925C92.1128 793.296 83.3333 772.1 83.3333 750V250C83.3333 203.75 120.417 166.667 166.667 166.667H416.667L500 250H791.667C837.375 250 875 287.625 875 333.333H166.667V750L255.833 416.667H967.083L872.083 770.833C862.5 807.083 830 833.333 791.667 833.333Z" fill="#90A4AE"/>
<g clip-path="url(#clip0_1_72)">
<path d="M346 557.242C346 594.575 376.264 624.839 413.596 624.839C450.928 624.839 481.192 594.575 481.192 557.242C481.192 519.91 450.928 489.646 413.596 489.646C376.264 489.646 346 519.91 346 557.242Z" fill="#FFCC33"/>
<path d="M346 895.224C346 932.556 376.264 962.821 413.596 962.821C450.928 962.821 481.192 932.556 481.192 895.224C481.192 857.892 450.928 827.628 413.596 827.628C376.264 827.628 346 857.892 346 895.224Z" fill="#FFCC33"/>
<path d="M371.348 726.237C371.348 749.57 390.264 768.485 413.597 768.485C436.93 768.485 455.845 749.57 455.845 726.237C455.845 702.904 436.93 683.989 413.597 683.989C390.264 683.989 371.348 702.904 371.348 726.237Z" fill="#FFCC33"/>
<path d="M371.348 388.248C371.348 411.582 390.264 430.497 413.597 430.497C436.93 430.497 455.845 411.582 455.845 388.248C455.845 364.915 436.93 346 413.597 346C390.264 346 371.348 364.915 371.348 388.248Z" fill="#FFCC33"/>
<path d="M605.403 788.759C605.403 826.091 635.666 856.355 672.999 856.355C710.332 856.355 740.596 826.091 740.596 788.759C740.596 751.426 710.332 721.163 672.999 721.163C635.666 721.163 605.403 751.426 605.403 788.759Z" fill="#FFCC33"/>
<path d="M630.751 957.753C630.751 981.086 649.667 1000 673 1000C696.333 1000 715.248 981.086 715.248 957.753C715.248 934.419 696.333 915.504 673 915.504C649.667 915.504 630.751 934.419 630.751 957.753Z" fill="#FFCC33"/>
<path d="M630.751 619.77C630.751 643.103 649.667 662.019 673 662.019C696.333 662.019 715.248 643.103 715.248 619.77C715.248 596.437 696.333 577.521 673 577.521C649.667 577.521 630.751 596.437 630.751 619.77Z" fill="#FFCC33"/>
<path d="M630.751 450.776C630.751 474.109 649.667 493.024 673 493.024C696.333 493.024 715.248 474.109 715.248 450.776C715.248 427.443 696.333 408.528 673 408.528C649.667 408.528 630.751 427.443 630.751 450.776Z" fill="#FFCC33"/>
<path d="M864.807 557.242C864.807 594.575 895.071 624.839 932.404 624.839C969.736 624.839 1000 594.575 1000 557.242C1000 519.91 969.736 489.646 932.404 489.646C895.071 489.646 864.807 519.91 864.807 557.242Z" fill="#FFCC33"/>
<path d="M890.156 388.248C890.156 411.582 909.071 430.497 932.405 430.497C955.737 430.497 974.653 411.582 974.653 388.248C974.653 364.915 955.737 346 932.405 346C909.071 346 890.156 364.915 890.156 388.248Z" fill="#FFCC33"/>
<path d="M890.156 726.237C890.156 749.57 909.071 768.485 932.405 768.485C955.737 768.485 974.653 749.57 974.653 726.237C974.653 702.904 955.737 683.989 932.405 683.989C909.071 683.989 890.156 702.904 890.156 726.237Z" fill="#FFCC33"/>
<path d="M890.156 895.225C890.156 918.558 909.071 937.473 932.405 937.473C955.737 937.473 974.653 918.558 974.653 895.225C974.653 871.891 955.737 852.976 932.405 852.976C909.071 852.976 890.156 871.891 890.156 895.225Z" fill="#FFCC33"/>
</g>
<defs>
<clipPath id="clip0_1_72">
<rect width="654" height="654" fill="white" transform="translate(346 346)"/>
</clipPath>
</defs>
</svg>
