<svg width="1000" height="1000" viewBox="0 0 1000 1000" fill="none" xmlns="http://www.w3.org/2000/svg">
<path d="M416.667 166.667H166.667C120.417 166.667 83.3333 203.75 83.3333 250V750C83.3333 795.708 120.958 833.333 166.667 833.333H833.333C879.042 833.333 916.667 795.708 916.667 750V333.333C916.667 311.232 907.887 290.036 892.258 274.408C876.629 258.78 855.433 250 833.333 250H500L416.667 166.667Z" fill="#AB47BC"/>
<path d="M416.667 166.667H166.667C120.417 166.667 83.3333 203.75 83.3333 250V750C83.3333 795.708 120.958 833.333 166.667 833.333H833.333C879.042 833.333 916.667 795.708 916.667 750V333.333C916.667 311.232 907.887 290.036 892.258 274.408C876.629 258.78 855.433 250 833.333 250H500L416.667 166.667Z" fill="#90A4AE"/>
<g clip-path="url(#clip0_11_75)">
<path d="M263 557.242C263 594.575 293.264 624.839 330.596 624.839C367.928 624.839 398.192 594.575 398.192 557.242C398.192 519.91 367.928 489.646 330.596 489.646C293.264 489.646 263 519.91 263 557.242Z" fill="#FFCC33"/>
<path d="M263 895.224C263 932.556 293.264 962.821 330.596 962.821C367.928 962.821 398.192 932.556 398.192 895.224C398.192 857.892 367.928 827.628 330.596 827.628C293.264 827.628 263 857.892 263 895.224Z" fill="#FFCC33"/>
<path d="M288.348 726.237C288.348 749.57 307.264 768.485 330.597 768.485C353.93 768.485 372.845 749.57 372.845 726.237C372.845 702.904 353.93 683.989 330.597 683.989C307.264 683.989 288.348 702.904 288.348 726.237Z" fill="#FFCC33"/>
<path d="M288.348 388.248C288.348 411.582 307.264 430.497 330.597 430.497C353.93 430.497 372.845 411.582 372.845 388.248C372.845 364.915 353.93 346 330.597 346C307.264 346 288.348 364.915 288.348 388.248Z" fill="#FFCC33"/>
<path d="M522.403 788.759C522.403 826.091 552.666 856.355 589.999 856.355C627.332 856.355 657.596 826.091 657.596 788.759C657.596 751.426 627.332 721.163 589.999 721.163C552.666 721.163 522.403 751.426 522.403 788.759Z" fill="#FFCC33"/>
<path d="M547.751 957.753C547.751 981.086 566.667 1000 590 1000C613.333 1000 632.248 981.086 632.248 957.753C632.248 934.419 613.333 915.504 590 915.504C566.667 915.504 547.751 934.419 547.751 957.753Z" fill="#FFCC33"/>
<path d="M547.751 619.77C547.751 643.103 566.667 662.019 590 662.019C613.333 662.019 632.248 643.103 632.248 619.77C632.248 596.437 613.333 577.521 590 577.521C566.667 577.521 547.751 596.437 547.751 619.77Z" fill="#FFCC33"/>
<path d="M547.751 450.776C547.751 474.109 566.667 493.024 590 493.024C613.333 493.024 632.248 474.109 632.248 450.776C632.248 427.443 613.333 408.528 590 408.528C566.667 408.528 547.751 427.443 547.751 450.776Z" fill="#FFCC33"/>
<path d="M781.807 557.242C781.807 594.575 812.071 624.839 849.404 624.839C886.736 624.839 917 594.575 917 557.242C917 519.91 886.736 489.646 849.404 489.646C812.071 489.646 781.807 519.91 781.807 557.242Z" fill="#FFCC33"/>
<path d="M807.156 388.248C807.156 411.582 826.071 430.497 849.405 430.497C872.737 430.497 891.653 411.582 891.653 388.248C891.653 364.915 872.737 346 849.405 346C826.071 346 807.156 364.915 807.156 388.248Z" fill="#FFCC33"/>
<path d="M807.156 726.237C807.156 749.57 826.071 768.485 849.405 768.485C872.737 768.485 891.653 749.57 891.653 726.237C891.653 702.904 872.737 683.989 849.405 683.989C826.071 683.989 807.156 702.904 807.156 726.237Z" fill="#FFCC33"/>
<path d="M807.156 895.225C807.156 918.558 826.071 937.473 849.405 937.473C872.737 937.473 891.653 918.558 891.653 895.225C891.653 871.891 872.737 852.976 849.405 852.976C826.071 852.976 807.156 871.891 807.156 895.225Z" fill="#FFCC33"/>
</g>
<defs>
<clipPath id="clip0_11_75">
<rect width="654" height="654" fill="white" transform="translate(263 346)"/>
</clipPath>
</defs>
</svg>
